<?xml version="1.0" encoding="UTF-8"?>
<!DOCTYPE svg PUBLIC "-//W3C//DTD SVG 1.1//EN" "http://www.w3.org/Graphics/SVG/1.1/DTD/svg11.dtd">
<!-- Creator: CorelDRAW -->
<svg xmlns="http://www.w3.org/2000/svg" xml:space="preserve" width="2048px" height="2048px" style="shape-rendering:geometricPrecision; text-rendering:geometricPrecision; image-rendering:optimizeQuality; fill-rule:evenodd; clip-rule:evenodd"
viewBox="0 0 2048 2048"
 xmlns:xlink="http://www.w3.org/1999/xlink">
 <defs>
  <style type="text/css">
   <![CDATA[
    .fil2 {fill:none}
    .fil3 {fill:#5D4037}
    .fil1 {fill:#D32F2F}
    .fil0 {fill:#FFD54F}
   ]]>
  </style>
 </defs>
 <g id="Layer_x0020_1">
  <metadata id="CorelCorpID_0Corel-Layer"/>
  <path class="fil0" d="M1024 255.999c424.155,0 768.001,343.845 768.001,768.001 0,424.155 -343.845,768.001 -768.001,768.001 -424.155,0 -768.001,-343.845 -768.001,-768.001 0,-424.155 343.845,-768.001 768.001,-768.001z"/>
  <path class="fil1" d="M1440.12 737.591c0,-45.8552 -37.174,-83.0257 -83.028,-83.0257 -29.9421,0 -56.0894,15.9012 -70.6985,39.6674 -14.6067,-23.7662 -40.767,-39.6674 -70.7067,-39.6674 -45.8552,0 -83.0174,37.1705 -83.0174,83.0257 0,24.965 11.0634,47.2985 28.4977,62.5075l117.649 117.656c2.01142,2.00788 4.73504,3.13819 7.57796,3.13819 2.84173,0 5.56654,-1.13032 7.57678,-3.13819l117.65 -117.656c17.4366,-15.2091 28.5,-37.5425 28.5,-62.5075z"/>
  <path class="fil1" d="M915.331 737.591c0,-45.8552 -37.174,-83.0257 -83.028,-83.0257 -29.9421,0 -56.0894,15.9012 -70.6985,39.6674 -14.6067,-23.7662 -40.767,-39.6674 -70.7067,-39.6674 -45.8552,0 -83.0174,37.1705 -83.0174,83.0257 0,24.965 11.0634,47.2985 28.4977,62.5075l117.649 117.656c2.01142,2.00788 4.73504,3.13819 7.57796,3.13819 2.84173,0 5.56654,-1.13032 7.57678,-3.13819l117.65 -117.656c17.4366,-15.2091 28.5,-37.5425 28.5,-62.5075z"/>
  <rect class="fil2" width="2048" height="2048"/>
  <rect class="fil2" x="255.999" y="255.999" width="1536" height="1536"/>
  <path class="fil3" d="M614.43 1202.71c61.4197,475.258 768.856,475.258 819.14,0 -134.49,288.254 -571.554,389.166 -819.14,0z"/>
 </g>
</svg>
