<?xml version="1.0" encoding="UTF-8"?>
<!DOCTYPE svg PUBLIC "-//W3C//DTD SVG 1.1//EN" "http://www.w3.org/Graphics/SVG/1.1/DTD/svg11.dtd">
<!-- Creator: CorelDRAW -->
<svg xmlns="http://www.w3.org/2000/svg" xml:space="preserve" width="2048px" height="2048px" style="shape-rendering:geometricPrecision; text-rendering:geometricPrecision; image-rendering:optimizeQuality; fill-rule:evenodd; clip-rule:evenodd"
viewBox="0 0 2048 2048"
 xmlns:xlink="http://www.w3.org/1999/xlink">
 <defs>
  <style type="text/css">
   <![CDATA[
    .fil1 {fill:none}
    .fil2 {fill:#5D4037}
    .fil0 {fill:#FFD54F}
   ]]>
  </style>
 </defs>
 <g id="Layer_x0020_1">
  <metadata id="CorelCorpID_0Corel-Layer"/>
  <path class="fil0" d="M1024 255.999c424.155,0 768.001,343.845 768.001,768.001 0,424.155 -343.845,768.001 -768.001,768.001 -424.155,0 -768.001,-343.845 -768.001,-768.001 0,-424.155 343.845,-768.001 768.001,-768.001z"/>
  <rect class="fil1" width="2048" height="2048"/>
  <rect class="fil1" x="255.999" y="255.999" width="1536" height="1536"/>
  <path class="fil2" d="M678.429 1463.43c52.787,-475.258 660.787,-475.258 704.004,0 -115.586,-288.254 -491.217,-389.166 -704.004,0z"/>
  <path class="fil2" d="M1307.19 671.999c44.1839,0 80.0008,35.817 80.0008,80.0008 0,44.1839 -35.817,80.0008 -80.0008,80.0008 -44.1839,0 -80.0008,-35.817 -80.0008,-80.0008 0,-44.1839 35.817,-80.0008 80.0008,-80.0008z"/>
  <path class="fil2" d="M740.807 671.999c44.1839,0 80.0008,35.817 80.0008,80.0008 0,44.1839 -35.817,80.0008 -80.0008,80.0008 -44.1839,0 -80.0008,-35.817 -80.0008,-80.0008 0,-44.1839 35.817,-80.0008 80.0008,-80.0008z"/>
 </g>
</svg>
